<svg width="588" height="395" viewBox="0 0 588 395" fill="none" xmlns="http://www.w3.org/2000/svg">
<circle cx="175.5" cy="377.5" r="17.5" fill="#78BDCB"/>
<circle cx="96.5" cy="377.5" r="17.5" fill="#78BDCB"/>
<circle cx="17.5" cy="377.5" r="17.5" fill="#78BDCB"/>
<circle cx="412.5" cy="377.5" r="17.5" fill="#78BDCB"/>
<circle cx="570.5" cy="377.5" r="17.5" fill="#78BDCB"/>
<circle cx="333.5" cy="377.5" r="17.5" fill="#78BDCB"/>
<circle cx="254.5" cy="377.5" r="17.5" fill="#78BDCB"/>
<circle cx="491.5" cy="377.5" r="17.5" fill="#78BDCB"/>
<circle cx="175.5" cy="257.5" r="17.5" fill="#78BDCB"/>
<circle cx="96.5" cy="257.5" r="17.5" fill="#78BDCB"/>
<circle cx="17.5" cy="257.5" r="17.5" fill="#78BDCB"/>
<circle cx="412.5" cy="257.5" r="17.5" fill="#78BDCB"/>
<circle cx="570.5" cy="257.5" r="17.5" fill="#78BDCB"/>
<circle cx="333.5" cy="257.5" r="17.5" fill="#78BDCB"/>
<circle cx="254.5" cy="257.5" r="17.5" fill="#78BDCB"/>
<circle cx="491.5" cy="257.5" r="17.5" fill="#78BDCB"/>
<circle cx="175.5" cy="137.5" r="17.5" fill="#78BDCB"/>
<circle cx="96.5" cy="137.5" r="17.5" fill="#78BDCB"/>
<circle cx="17.5" cy="137.5" r="17.5" fill="#78BDCB"/>
<circle cx="412.5" cy="137.5" r="17.5" fill="#78BDCB"/>
<circle cx="570.5" cy="137.5" r="17.5" fill="#78BDCB"/>
<circle cx="333.5" cy="137.5" r="17.5" fill="#78BDCB"/>
<circle cx="254.5" cy="137.5" r="17.5" fill="#78BDCB"/>
<circle cx="491.5" cy="137.5" r="17.5" fill="#78BDCB"/>
<circle cx="175.5" cy="17.5" r="17.5" fill="#78BDCB"/>
<circle cx="96.5" cy="17.5" r="17.5" fill="#78BDCB"/>
<circle cx="17.5" cy="17.5" r="17.5" fill="#78BDCB"/>
<circle cx="412.5" cy="17.5" r="17.5" fill="#78BDCB"/>
<circle cx="570.5" cy="17.5" r="17.5" fill="#78BDCB"/>
<circle cx="333.5" cy="17.5" r="17.5" fill="#78BDCB"/>
<circle cx="254.5" cy="17.5" r="17.5" fill="#78BDCB"/>
<circle cx="491.5" cy="17.5" r="17.5" fill="#78BDCB"/>
</svg>
